<svg xmlns="http://www.w3.org/2000/svg" width="128" height="64">
  <!-- Frame 1: Standing -->
  <rect x="0" y="0" width="32" height="64" fill="#00000000" />
  <!-- Hair -->
  <rect x="10" y="2" width="12" height="6" fill="#8B4513" />
  <rect x="8" y="8" width="16" height="6" fill="#8B4513" />
  <!-- Face -->
  <rect x="10" y="14" width="12" height="14" fill="#FFD700" />
  <!-- Eyes -->
  <rect x="12" y="18" width="2" height="2" fill="#000000" />
  <rect x="18" y="18" width="2" height="2" fill="#000000" />
  <!-- Mouth -->
  <rect x="14" y="22" width="4" height="1" fill="#FF0000" />
  <!-- Body -->
  <rect x="10" y="28" width="12" height="10" fill="#FF69B4" />
  <!-- Arms -->
  <rect x="6" y="28" width="4" height="10" fill="#FFD700" />
  <rect x="22" y="28" width="4" height="10" fill="#FFD700" />
  <!-- Legs -->
  <rect x="12" y="38" width="4" height="10" fill="#000000" />
  <rect x="16" y="38" width="4" height="10" fill="#000000" />

  <!-- Frame 2: Right leg forward -->
  <rect x="32" y="0" width="32" height="64" fill="#00000000" />
  <!-- Hair -->
  <rect x="42" y="2" width="12" height="6" fill="#8B4513" />
  <rect x="40" y="8" width="16" height="6" fill="#8B4513" />
  <!-- Face -->
  <rect x="42" y="14" width="12" height="14" fill="#FFD700" />
  <!-- Eyes -->
  <rect x="44" y="18" width="2" height="2" fill="#000000" />
  <rect x="50" y="18" width="2" height="2" fill="#000000" />
  <!-- Mouth -->
  <rect x="46" y="22" width="4" height="1" fill="#FF0000" />
  <!-- Body -->
  <rect x="42" y="28" width="12" height="10" fill="#FF69B4" />
  <!-- Arms -->
  <rect x="38" y="28" width="4" height="10" fill="#FFD700" />
  <rect x="54" y="28" width="4" height="10" fill="#FFD700" />
  <!-- Legs -->
  <rect x="44" y="38" width="4" height="12" fill="#000000" />
  <rect x="50" y="40" width="4" height="8" fill="#000000" />

  <!-- Frame 3: Left leg forward -->
  <rect x="64" y="0" width="32" height="64" fill="#00000000" />
  <!-- Hair -->
  <rect x="74" y="2" width="12" height="6" fill="#8B4513" />
  <rect x="72" y="8" width="16" height="6" fill="#8B4513" />
  <!-- Face -->
  <rect x="74" y="14" width="12" height="14" fill="#FFD700" />
  <!-- Eyes -->
  <rect x="76" y="18" width="2" height="2" fill="#000000" />
  <rect x="82" y="18" width="2" height="2" fill="#000000" />
  <!-- Mouth -->
  <rect x="78" y="22" width="4" height="1" fill="#FF0000" />
  <!-- Body -->
  <rect x="74" y="28" width="12" height="10" fill="#FF69B4" />
  <!-- Arms -->
  <rect x="70" y="28" width="4" height="10" fill="#FFD700" />
  <rect x="86" y="28" width="4" height="10" fill="#FFD700" />
  <!-- Legs -->
  <rect x="76" y="40" width="4" height="8" fill="#000000" />
  <rect x="82" y="38" width="4" height="12" fill="#000000" />

  <!-- Frame 4: Both legs mid-stride -->
  <rect x="96" y="0" width="32" height="64" fill="#00000000" />
  <!-- Hair -->
  <rect x="106" y="2" width="12" height="6" fill="#8B4513" />
  <rect x="104" y="8" width="16" height="6" fill="#8B4513" />
  <!-- Face -->
  <rect x="106" y="14" width="12" height="14" fill="#FFD700" />
  <!-- Eyes -->
  <rect x="108" y="18" width="2" height="2" fill="#000000" />
  <rect x="114" y="18" width="2" height="2" fill="#000000" />
  <!-- Mouth -->
  <rect x="110" y="22" width="4" height="1" fill="#FF0000" />
  <!-- Body -->
  <rect x="106" y="28" width="12" height="10" fill="#FF69B4" />
  <!-- Arms -->
  <rect x="102" y="28" width="4" height="10" fill="#FFD700" />
  <rect x="118" y="28" width="4" height="10" fill="#FFD700" />
  <!-- Legs -->
  <rect x="108" y="38" width="4" height="10" fill="#000000" />
  <rect x="114" y="38" width="4" height="10" fill="#000000" />
</svg>
